<svg id="Layer_1" data-name="Layer 1" xmlns="http://www.w3.org/2000/svg" viewBox="0 0 432.51 60"><defs><style>.cls-1{fill:#9c9b9b;}.cls-2{fill:#434a59;}.cls-3,.cls-4{fill:#2897cc;}.cls-4,.cls-5{fill-rule:evenodd;}.cls-5{fill:#89b733;}</style></defs><title>logo</title><path class="cls-1" d="M604.22,404.91h2.93a2.81,2.81,0,0,1,2.55,1.41,2.44,2.44,0,0,1,.39,1c0,.35.06.94.06,1.79a11.38,11.38,0,0,1-.1,1.88,2.34,2.34,0,0,1-.13.49c-.07.13-.15.28-.24.43a2.8,2.8,0,0,1-1,1,2.85,2.85,0,0,1-1.59.42h-2.85Zm1.27,7.18H607a1.74,1.74,0,0,0,1.55-.73,1.43,1.43,0,0,0,.27-.69c0-.27,0-.78,0-1.52s0-1.25,0-1.57a1.4,1.4,0,0,0-.33-.76,1.68,1.68,0,0,0-1.49-.71h-1.52Z" transform="translate(-466.75 -354)"/><path class="cls-1" d="M613.7,409.1a13.28,13.28,0,0,1,.09-2,2.2,2.2,0,0,1,.28-.8,3,3,0,0,1,2.62-1.51,3,3,0,0,1,1.67.47,2.81,2.81,0,0,1,.95,1,1.89,1.89,0,0,1,.3.8,27.06,27.06,0,0,1,0,3.89,1.88,1.88,0,0,1-.3.81,2.62,2.62,0,0,1-.95,1,3,3,0,0,1-1.67.49,2.9,2.9,0,0,1-1.64-.49,2.71,2.71,0,0,1-1-1l-.17-.36a3,3,0,0,1-.11-.45,13.39,13.39,0,0,1-.09-1.94m1.28,0a10,10,0,0,0,.09,1.67,1.34,1.34,0,0,0,.33.71,1.68,1.68,0,0,0,1.29.61,1.62,1.62,0,0,0,.79-.19,1.51,1.51,0,0,0,.51-.42,1.62,1.62,0,0,0,.34-.71,11.7,11.7,0,0,0,.08-1.67,12,12,0,0,0-.08-1.68,1.58,1.58,0,0,0-.34-.7,1.67,1.67,0,0,0-.51-.43,1.88,1.88,0,0,0-.79-.18,1.82,1.82,0,0,0-.77.18,1.71,1.71,0,0,0-.52.43,1.31,1.31,0,0,0-.33.7,10.2,10.2,0,0,0-.09,1.68" transform="translate(-466.75 -354)"/><polygon class="cls-1" points="156.77 50.91 157.97 50.91 161.76 56.86 161.78 56.86 161.78 50.91 163.05 50.91 163.05 59.29 161.85 59.29 158.06 53.34 158.04 53.34 158.04 59.29 156.77 59.29 156.77 50.91"/><path class="cls-1" d="M636.63,408.67h3v1.71a3,3,0,0,1-.86,2.11,3,3,0,0,1-2.13.87,3,3,0,0,1-1.65-.49,2.76,2.76,0,0,1-1-1l-.17-.36a3,3,0,0,1-.11-.45,21.06,21.06,0,0,1,0-3.89,2.2,2.2,0,0,1,.28-.8,2.93,2.93,0,0,1,2.62-1.51,2.86,2.86,0,0,1,2,.72,3.13,3.13,0,0,1,1,1.76h-1.34a1.87,1.87,0,0,0-.56-.86,1.73,1.73,0,0,0-1-.35,1.82,1.82,0,0,0-.77.18,1.75,1.75,0,0,0-.53.43,1.38,1.38,0,0,0-.32.7,9.78,9.78,0,0,0-.1,1.68,9.64,9.64,0,0,0,.1,1.67,1.41,1.41,0,0,0,.32.71,1.59,1.59,0,0,0,.53.42,1.57,1.57,0,0,0,.77.19,1.61,1.61,0,0,0,1.23-.51,1.76,1.76,0,0,0,.49-1.27v-.43h-1.71Z" transform="translate(-466.75 -354)"/><polygon class="cls-1" points="181.28 55.63 177.97 55.63 177.97 59.29 176.7 59.29 176.7 50.91 177.97 50.91 177.97 54.5 181.28 54.5 181.28 50.91 182.55 50.91 182.55 59.29 181.28 59.29 181.28 55.63"/><path class="cls-1" d="M657.71,411.41h-3.17l-.65,1.88h-1.34l3-8.38h1.06l3.05,8.38h-1.34Zm-.36-1.12-1.21-3.66h0l-1.22,3.66Z" transform="translate(-466.75 -354)"/><polygon class="cls-1" points="196.21 50.91 201.55 50.91 201.55 52.11 197.47 52.11 197.47 54.5 200.96 54.5 200.96 55.63 197.47 55.63 197.47 58.09 201.55 58.09 201.55 59.29 196.21 59.29 196.21 50.91"/><polygon class="cls-1" points="211.69 52.04 209.4 52.04 209.4 50.91 215.26 50.91 215.26 52.04 212.97 52.04 212.97 59.29 211.69 59.29 211.69 52.04"/><polygon class="cls-1" points="218.51 50.91 223.86 50.91 223.86 52.11 219.78 52.11 219.78 54.5 223.26 54.5 223.26 55.63 219.78 55.63 219.78 58.09 223.86 58.09 223.86 59.29 218.51 59.29 218.51 50.91"/><path class="cls-1" d="M694,404.91h1.27v5.4a1.68,1.68,0,0,0,.49,1.3,1.62,1.62,0,0,0,1.21.48,1.68,1.68,0,0,0,1.23-.48,1.75,1.75,0,0,0,.48-1.3v-5.4H700v5.54a2.81,2.81,0,0,1-.86,2.1,3.15,3.15,0,0,1-4.22,0,2.71,2.71,0,0,1-.87-2.1Z" transform="translate(-466.75 -354)"/><polygon class="cls-1" points="237.17 50.91 238.37 50.91 242.16 56.86 242.18 56.86 242.18 50.91 243.45 50.91 243.45 59.29 242.25 59.29 238.46 53.34 238.44 53.34 238.44 59.29 237.17 59.29 237.17 50.91"/><polygon class="cls-1" points="248.99 52.04 246.7 52.04 246.7 50.91 252.56 50.91 252.56 52.04 250.26 52.04 250.26 59.29 248.99 59.29 248.99 52.04"/><polygon class="cls-1" points="255.81 50.91 261.15 50.91 261.15 52.11 257.08 52.11 257.08 54.5 260.56 54.5 260.56 55.63 257.08 55.63 257.08 58.09 261.15 58.09 261.15 59.29 255.81 59.29 255.81 50.91"/><path class="cls-1" d="M731.29,404.91h1.27v5.4a1.72,1.72,0,0,0,.5,1.3,1.6,1.6,0,0,0,1.21.48,1.66,1.66,0,0,0,1.22-.48,1.72,1.72,0,0,0,.49-1.3v-5.4h1.26v5.54a2.81,2.81,0,0,1-.85,2.1,3,3,0,0,1-2.12.81,3,3,0,0,1-2.1-.81,2.72,2.72,0,0,1-.88-2.1Z" transform="translate(-466.75 -354)"/><polygon class="cls-1" points="274.47 50.91 275.66 50.91 279.45 56.86 279.48 56.86 279.48 50.91 280.75 50.91 280.75 59.29 279.54 59.29 275.76 53.34 275.74 53.34 275.74 59.29 274.47 59.29 274.47 50.91"/><path class="cls-1" d="M756.79,404.91h3a4.86,4.86,0,0,1,.95.09,2.62,2.62,0,0,1,.94.5,2,2,0,0,1,.64.8,2.65,2.65,0,0,1,.26,1.2,2.52,2.52,0,0,1-.66,1.69,2.48,2.48,0,0,1-2,.83h-1.93v3.27h-1.27Zm1.27,3.91h1.88a1.36,1.36,0,0,0,1.06-.44,1.45,1.45,0,0,0,.34-.92,1.7,1.7,0,0,0-.14-.71,1.1,1.1,0,0,0-.4-.4,1.53,1.53,0,0,0-.91-.24h-1.83Z" transform="translate(-466.75 -354)"/><path class="cls-1" d="M769.53,411.41h-3.17l-.65,1.88h-1.34l3-8.38h1.06l3,8.38h-1.34Zm-.36-1.12L768,406.63h0l-1.22,3.66Z" transform="translate(-466.75 -354)"/><rect class="cls-1" x="308.02" y="50.91" width="1.27" height="8.38"/><polygon class="cls-1" points="313.41 50.91 314.61 50.91 318.4 56.86 318.42 56.86 318.42 50.91 319.69 50.91 319.69 59.29 318.49 59.29 314.7 53.34 314.68 53.34 314.68 59.29 313.41 59.29 313.41 50.91"/><path class="cls-1" d="M801.38,410.94a3.24,3.24,0,0,1-1,1.8,3,3,0,0,1-1.89.62,3,3,0,0,1-1.65-.49,2.71,2.71,0,0,1-1-1l-.17-.36a3,3,0,0,1-.11-.45,21.06,21.06,0,0,1,0-3.89,2.2,2.2,0,0,1,.28-.8,2.91,2.91,0,0,1,1-1,3,3,0,0,1,1.65-.47,2.85,2.85,0,0,1,2,.72,3.21,3.21,0,0,1,1,1.76H800a1.87,1.87,0,0,0-.56-.86,1.7,1.7,0,0,0-1-.35,1.78,1.78,0,0,0-.77.18,1.52,1.52,0,0,0-.53.43,1.31,1.31,0,0,0-.33.7,15.63,15.63,0,0,0,0,3.35,1.34,1.34,0,0,0,.33.71,1.5,1.5,0,0,0,.53.42,1.54,1.54,0,0,0,.77.19,1.69,1.69,0,0,0,1.59-1.15Z" transform="translate(-466.75 -354)"/><polygon class="cls-1" points="337.88 50.91 339.15 50.91 339.15 58.09 343.23 58.09 343.23 59.29 337.88 59.29 337.88 50.91"/><rect class="cls-1" x="346.78" y="50.91" width="1.27" height="8.38"/><polygon class="cls-1" points="352.17 50.91 353.36 50.91 357.15 56.86 357.17 56.86 357.17 50.91 358.44 50.91 358.44 59.29 357.24 59.29 353.46 53.34 353.43 53.34 353.43 59.29 352.17 59.29 352.17 50.91"/><rect class="cls-1" x="362.57" y="50.91" width="1.27" height="8.38"/><path class="cls-1" d="M840.35,410.94a3.19,3.19,0,0,1-1.06,1.8,3.11,3.11,0,0,1-3.54.13,2.76,2.76,0,0,1-1-1l-.17-.36a3,3,0,0,1-.11-.45,21.06,21.06,0,0,1,0-3.89,2.2,2.2,0,0,1,.28-.8,2.93,2.93,0,0,1,2.62-1.51,2.86,2.86,0,0,1,2,.72,3.21,3.21,0,0,1,1,1.76H839a1.87,1.87,0,0,0-.56-.86,1.73,1.73,0,0,0-1-.35,1.82,1.82,0,0,0-.77.18,1.58,1.58,0,0,0-.52.43,1.31,1.31,0,0,0-.33.7,15.63,15.63,0,0,0,0,3.35,1.34,1.34,0,0,0,.33.71,1.68,1.68,0,0,0,1.29.61,1.69,1.69,0,0,0,1.6-1.15Z" transform="translate(-466.75 -354)"/><path class="cls-2" d="M688.84,383.4a6.8,6.8,0,0,1-1.79,1,19,19,0,0,1-2.24.75,20.63,20.63,0,0,1-2.39.48,17.45,17.45,0,0,1-2.15.16H677.1a5.18,5.18,0,0,1-3.42-.94,3.49,3.49,0,0,1-1.09-2.82V364.82h16.25Zm-4.92-14.58h-6.44v12.09a.93.93,0,0,0,.22.72,1.13,1.13,0,0,0,.74.19h1.72a10.22,10.22,0,0,0,1.92-.19,5.65,5.65,0,0,0,1.84-.69Zm18.28,8.86h-4.34V392h-5V363.62h5v10h4.34Z" transform="translate(-466.75 -354)"/><path class="cls-2" d="M715,380.17a42,42,0,0,0,5.16-.32,13.35,13.35,0,0,0,4.48-1.3V363.62h5V392h-5v-9.31a13.89,13.89,0,0,1-4,1.13,34.92,34.92,0,0,1-4.54.28v7.55h-5v-7.55h-7.81v-3.9Zm-9.71-14.65h4.41a7.15,7.15,0,0,0,.14-1,3.68,3.68,0,0,0,0-.9c-.07-.24-.14-.49-.21-.77a6.39,6.39,0,0,0-.2-.74L714,361a12.87,12.87,0,0,1,.34,1.36,6.88,6.88,0,0,1,.14,1.35,8.51,8.51,0,0,1-.12.95,7.14,7.14,0,0,1-.22.91h2.41c1.42,0,2.31.37,2.66,1.11a3.66,3.66,0,0,1,.2,2.51,7.77,7.77,0,0,1-.57,1.53,9.84,9.84,0,0,1-.85,1.38,4.32,4.32,0,0,1,.62.29,2.81,2.81,0,0,1,.55.38c.55.56,1.08,1.11,1.57,1.65l1.88,2.11-2.93,2.88-1.7-2-1.43-1.61a5.46,5.46,0,0,0-.64-.56,4.37,4.37,0,0,0-.64-.42,24.59,24.59,0,0,1-4.57,2.74A40.33,40.33,0,0,1,706,379.4l-1.65-3.83a61.94,61.94,0,0,0,5.9-2.51A9.91,9.91,0,0,0,714,370c.14-.18.17-.32.1-.42a.48.48,0,0,0-.41-.14h-8.4Z" transform="translate(-466.75 -354)"/><path class="cls-2" d="M740.89,367.84h14.84v3.09H740.89v.7a1,1,0,0,0,.16.67c.1.12.36.18.77.18h7.9c.66,0,1.3,0,1.95,0s1.31-.08,2-.18,1.46-.23,2.29-.42l.65,3.13a19.11,19.11,0,0,1-3.85.7q-2.1.18-4.17.21v1.93h11.5v3.58H732.56v-3.58h11v-1.93H740.2a6.39,6.39,0,0,1-3.09-.65,2.56,2.56,0,0,1-1.18-2.48V363h19.8v3.44H740.89Zm13.17,23.69a5.49,5.49,0,0,1-1.91,2,7.79,7.79,0,0,1-2.75,1.11,16.38,16.38,0,0,1-3.34.33,16.66,16.66,0,0,1-3.39-.33,8.36,8.36,0,0,1-2.78-1.07,5.74,5.74,0,0,1-1.89-2,6.61,6.61,0,0,1,0-5.88,5.71,5.71,0,0,1,1.89-2,8.19,8.19,0,0,1,2.78-1.12,16.5,16.5,0,0,1,6.76,0,8.11,8.11,0,0,1,2.75,1.12,5.65,5.65,0,0,1,1.9,2,5.83,5.83,0,0,1,.69,2.93,5.7,5.7,0,0,1-.71,2.93m-5.3-5a5.67,5.67,0,0,0-5.42,0,2.33,2.33,0,0,0-1.07,2.07,2.26,2.26,0,0,0,1.07,2.07,5,5,0,0,0,2.72.67,5.19,5.19,0,0,0,2.7-.63,2.27,2.27,0,0,0,1-2.11,2.32,2.32,0,0,0-1-2.09" transform="translate(-466.75 -354)"/><path class="cls-2" d="M789.36,380H761.82V376.2h27.54Zm-6.43-16.76a1.54,1.54,0,0,1,1.49,1,2.33,2.33,0,0,1-.19,2.19,7.37,7.37,0,0,1-1.29,1.64,17.16,17.16,0,0,1-1.84,1.53,6.67,6.67,0,0,1,1,.19c.29.08.57.17.82.26l1,.51c.35.18.69.37,1,.58s.7.39,1.06.62.76.45,1.18.68l-1.9,3.3-1.31-.75-1-.62c-.33-.16-.65-.33-1-.51s-.67-.36-1-.58a13.45,13.45,0,0,0-2.19-.82,7.47,7.47,0,0,0-2.46-.26l-1,.38a34.37,34.37,0,0,1-4.89,1.58q-2.79.71-5.51,1.16l-.69-3.79c2.64-.49,5.08-1.07,7.33-1.72a17.6,17.6,0,0,0,5.75-2.78H766.23V363.2Zm.74,27.88a6.69,6.69,0,0,1-1.91,2.16A8.42,8.42,0,0,1,779,394.5a13,13,0,0,1-3.34.42,13.34,13.34,0,0,1-3.39-.42,8.29,8.29,0,0,1-2.77-1.26,6,6,0,0,1-1.89-2.13,6.29,6.29,0,0,1-.69-3,6.38,6.38,0,0,1,.69-3,6.48,6.48,0,0,1,1.89-2.18,8.73,8.73,0,0,1,2.77-1.28,12.91,12.91,0,0,1,3.39-.44,12.72,12.72,0,0,1,3.38.44,8.83,8.83,0,0,1,2.75,1.28,6.48,6.48,0,0,1,1.89,2.18,6.38,6.38,0,0,1,.69,3,6.17,6.17,0,0,1-.7,3m-5.31-5.34a4.83,4.83,0,0,0-2.7-.69,4.92,4.92,0,0,0-2.72.69,2.54,2.54,0,0,0-1.06,2.33,2.51,2.51,0,0,0,1.06,2.34,5.19,5.19,0,0,0,2.72.65,5.09,5.09,0,0,0,2.7-.65,2.53,2.53,0,0,0,1.06-2.34,2.56,2.56,0,0,0-1.06-2.33" transform="translate(-466.75 -354)"/><path class="cls-2" d="M812.67,392v-5.65a11.59,11.59,0,0,1-3.75,1.4,29.75,29.75,0,0,1-5.89.46h-11.5v-3.87h11.4a26.19,26.19,0,0,0,5.75-.56,10.22,10.22,0,0,0,4-1.68V363.62h5V392Zm-5.15-13.49a10.38,10.38,0,0,1-12.73,0,9.26,9.26,0,0,1,0-12.52,9.2,9.2,0,0,1,6.37-2.2,9.1,9.1,0,0,1,6.35,2.2,9.28,9.28,0,0,1,0,12.52M804,369a3.9,3.9,0,0,0-5.67,0,5.36,5.36,0,0,0,0,6.53,4,4,0,0,0,5.67,0,5.36,5.36,0,0,0,0-6.53" transform="translate(-466.75 -354)"/><path class="cls-2" d="M838.59,369.35h-2.2a7.43,7.43,0,0,1,.81,1.76,7.28,7.28,0,0,1-.35,5,6.7,6.7,0,0,1-1.7,2.25,7.46,7.46,0,0,1-2.48,1.4,8.8,8.8,0,0,1-2.93.5,9.28,9.28,0,0,1-3-.48,7.08,7.08,0,0,1-2.48-1.42,6.87,6.87,0,0,1-1.66-2.25,7.15,7.15,0,0,1-.62-3,7.27,7.27,0,0,1,.28-2,6.67,6.67,0,0,1,.79-1.76h-2.17v-3.58h6.51a3.91,3.91,0,0,0,.17-1,6,6,0,0,0,0-1c0-.21-.1-.43-.16-.65s-.12-.44-.19-.65l4.79-1.34a12.82,12.82,0,0,1,.33,1.36,8.78,8.78,0,0,1,.11,1.35,6.06,6.06,0,0,1-.15,1,4.25,4.25,0,0,1-.33.93h6.68Zm7.2-6.08v7.24h4.27v4h-4.27v3.69a5.08,5.08,0,0,1-.64,2.65,4.56,4.56,0,0,1-1.57,1.63,2.14,2.14,0,0,1,1.54.86,2.66,2.66,0,0,1,.49,1.81l-.41,9.1h-4.68v-6.85a1.06,1.06,0,0,0-.24-.75.91.91,0,0,0-.72-.27H824.61v-3.93h14.64a3.12,3.12,0,0,0,1.18-1.6,7,7,0,0,0,.37-2.3V363.27ZM832,370.81a3.16,3.16,0,0,0-4.56,0,3.6,3.6,0,0,0,0,4.65,3.21,3.21,0,0,0,4.56,0,3.71,3.71,0,0,0,0-4.65" transform="translate(-466.75 -354)"/><path class="cls-2" d="M860.9,375.53v8.78h1.58a27.07,27.07,0,0,0,5.46-.49,11.92,11.92,0,0,0,3.94-1.47V363.62h5V374h4.34v4.07h-4.34V392h-5v-5.76a12.22,12.22,0,0,1-3.66,1.46,25.31,25.31,0,0,1-5.63.51H851.26v-3.87H856v-8.78Zm1.89,6c.39-2,.7-4.05.93-6.2a53.69,53.69,0,0,0,.35-5.63,1,1,0,0,0-.16-.64c-.1-.14-.32-.21-.67-.21H852v-4h13.87a2.9,2.9,0,0,1,2.41.79,3.92,3.92,0,0,1,.59,2.34,67,67,0,0,1-.5,7.75,64.67,64.67,0,0,1-1.12,6.58Z" transform="translate(-466.75 -354)"/><path class="cls-2" d="M896,377.56v-2.85a6.17,6.17,0,0,1-2,.71,17,17,0,0,1-3.11.23h-6.06v-1.94h6a14.43,14.43,0,0,0,3-.29,5.52,5.52,0,0,0,2.1-.85v-9.28h2.63v14.27Zm-2.71-6.79a5.67,5.67,0,0,1-6.71,0,4.52,4.52,0,0,1,0-6.31,5.65,5.65,0,0,1,6.7,0,4.53,4.53,0,0,1,0,6.31m-1.86-4.8a2.14,2.14,0,0,0-3,0,2.24,2.24,0,0,0-.58,1.63,2.27,2.27,0,0,0,.58,1.66,2.19,2.19,0,0,0,3,0,2.27,2.27,0,0,0,.58-1.66,2.24,2.24,0,0,0-.58-1.63" transform="translate(-466.75 -354)"/><path class="cls-2" d="M885,385.88h4.61c.36,0,.78,0,1.25,0s1-.06,1.45-.12,1-.14,1.5-.24a8.59,8.59,0,0,0,1.41-.43l.34,1.75a7.74,7.74,0,0,1-2.28.64,22.16,22.16,0,0,1-2.51.21v1.95h-2.63v-1.95H885Zm7.93-1.52a6.19,6.19,0,0,1-6.21,0,2.79,2.79,0,0,1,0-4.42,6.1,6.1,0,0,1,6.21,0,2.76,2.76,0,0,1,0,4.43m-3,5.84v2.19a.4.4,0,0,0,.49.48h4.39a11,11,0,0,0,2-.18,17,17,0,0,0,1.9-.46l.54,1.81c-.62.21-1.26.39-1.91.56a10.68,10.68,0,0,1-2.37.23h-5.66a2.24,2.24,0,0,1-1.53-.46,1.57,1.57,0,0,1-.54-1.27v-2.9Zm1.17-9a2.41,2.41,0,0,0-2.47,0,1.17,1.17,0,0,0,0,1.83,2.41,2.41,0,0,0,2.47,0,1.17,1.17,0,0,0,0-1.83m7.54,9.71H896v-1.21h-2.81V388H896v-8.56h2.6Z" transform="translate(-466.75 -354)"/><path class="cls-3" d="M555.53,369.1a1.73,1.73,0,0,0,.23.95.92.92,0,0,0,.85.35H560l2.28,0c.84,0,1.74,0,2.69-.09s1.93-.12,2.94-.24a25.29,25.29,0,0,0,3-.56l.66,3.58a18.9,18.9,0,0,1-3.91.74c-1.49.14-2.94.22-4.33.24v1.79h11.55v3.76H547.12v-3.76h11.19v-1.79h-3.06a6.29,6.29,0,0,1-3.37-.84c-.9-.56-1.36-1.65-1.36-3.27V363.2H570.8V367H555.53Zm13.48,22a6.75,6.75,0,0,1-1.93,2.16,8.53,8.53,0,0,1-2.78,1.26,13.32,13.32,0,0,1-3.38.42,13.52,13.52,0,0,1-3.42-.42,8.36,8.36,0,0,1-2.8-1.26,6,6,0,0,1-1.92-2.13,6.29,6.29,0,0,1-.69-3,6.38,6.38,0,0,1,.69-3,6.46,6.46,0,0,1,1.92-2.18,8.8,8.8,0,0,1,2.8-1.28,13.08,13.08,0,0,1,3.42-.44,13,13,0,0,1,3.41.44,8.89,8.89,0,0,1,2.78,1.28,6.57,6.57,0,0,1,1.92,2.18,6.38,6.38,0,0,1,.69,3,6.17,6.17,0,0,1-.71,3m-5.36-5.34a4.91,4.91,0,0,0-2.73-.69,5,5,0,0,0-2.75.69,2.55,2.55,0,0,0-1.07,2.33,2.51,2.51,0,0,0,1.07,2.34,5.3,5.3,0,0,0,2.75.65,5.18,5.18,0,0,0,2.73-.65,2.51,2.51,0,0,0,1.06-2.34,2.54,2.54,0,0,0-1.06-2.33" transform="translate(-466.75 -354)"/><path class="cls-3" d="M582.14,367.14a2.88,2.88,0,0,0,.38-1.25,3.51,3.51,0,0,0-.18-1.28l-.38-1.09,4.28-1.48c.09.28.2.59.31.93s.21.64.28.9a6,6,0,0,1,0,1.79,4.07,4.07,0,0,1-.52,1.48h6V371H576.4v-3.9Zm9,15.1a6.74,6.74,0,0,1-1.45,2.36,6.54,6.54,0,0,1-2.28,1.59,7.49,7.49,0,0,1-3,.58,7.88,7.88,0,0,1-3.09-.56,6,6,0,0,1-2.26-1.58,6.38,6.38,0,0,1-1.43-2.35,8.91,8.91,0,0,1-.49-2.95,8.81,8.81,0,0,1,.47-2.87,6.91,6.91,0,0,1,1.41-2.37,7.18,7.18,0,0,1,2.3-1.58,7.54,7.54,0,0,1,3.09-.6,7.67,7.67,0,0,1,3.13.6,6.69,6.69,0,0,1,2.26,1.58,6.61,6.61,0,0,1,1.41,2.37,8.81,8.81,0,0,1,.47,2.87,8.47,8.47,0,0,1-.5,2.91m-4.66-5.39a2.42,2.42,0,0,0-2.11-1,2.39,2.39,0,0,0-2.1,1,4.13,4.13,0,0,0-.72,2.48,4.19,4.19,0,0,0,.72,2.53,2.43,2.43,0,0,0,2.1,1,2.46,2.46,0,0,0,2.11-1,4.25,4.25,0,0,0,.71-2.53,4.2,4.2,0,0,0-.71-2.48m6.93,14.77v-28H598v10.75h2.46V363.62h4.63V392h-4.63V378.52H598v13.1Z" transform="translate(-466.75 -354)"/><path class="cls-3" d="M638.61,382.7H610.79v-3.83h27.82Zm-11,7.27c1.19,0,2.41,0,3.67-.12a16.27,16.27,0,0,0,4-.79l1,3.65a18.51,18.51,0,0,1-4.69,1c-1.42.09-2.67.14-3.76.14h-9.88a4.88,4.88,0,0,1-3-.77,3.48,3.48,0,0,1-.95-2.81v-5.66h5.07v4.46a1,1,0,0,0,.18.7,1,1,0,0,0,.73.18Zm-8.38-21.53h15v3.33h-15v.74a1,1,0,0,0,.16.67c.1.12.36.17.78.17H626l2.14,0c.66,0,1.32,0,2,0s1.32-.08,2-.17,1.48-.23,2.32-.42l.65,3.23a21.05,21.05,0,0,1-4.88.77c-1.82.1-3.54.14-5.16.14h-6.89a4.6,4.6,0,0,1-3-.82,3.25,3.25,0,0,1-1-2.65V363.38h20v3.51h-15Z" transform="translate(-466.75 -354)"/><path class="cls-3" d="M668.17,382.7H640.35v-3.83h27.82Zm-11,7.27c1.19,0,2.41,0,3.67-.12a16.27,16.27,0,0,0,4-.79l1,3.65a18.51,18.51,0,0,1-4.69,1c-1.42.09-2.67.14-3.76.14h-9.87a4.9,4.9,0,0,1-3-.77,3.48,3.48,0,0,1-1-2.81v-5.66h5.07v4.46a1,1,0,0,0,.18.7,1,1,0,0,0,.73.18Zm-8.38-21.53h15v3.33h-15v.74a1,1,0,0,0,.16.67c.1.12.36.17.78.17h5.84l2.14,0c.66,0,1.32,0,2,0s1.32-.08,2-.17,1.48-.23,2.32-.42l.66,3.23a21.23,21.23,0,0,1-4.89.77c-1.82.1-3.54.14-5.16.14h-6.89a4.6,4.6,0,0,1-3-.82,3.25,3.25,0,0,1-1-2.65V363.38h20v3.51h-15Z" transform="translate(-466.75 -354)"/><path class="cls-4" d="M502,399.69a2.62,2.62,0,0,1,5.24,0v3.86a10.46,10.46,0,0,1-20.91,0V384a2.62,2.62,0,0,1,5.24,0v19.54a5.22,5.22,0,1,0,10.43,0Zm19.68,3.06a5.69,5.69,0,1,1-5.68-5.68,5.69,5.69,0,0,1,5.68,5.68" transform="translate(-466.75 -354)"/><path class="cls-5" d="M481.06,389.22a2.62,2.62,0,1,1,0,5.23H477.2a10.45,10.45,0,0,1,0-20.9h19.53a2.62,2.62,0,1,1,0,5.23H477.2a5.22,5.22,0,1,0,0,10.44ZM478,408.89a5.69,5.69,0,1,1,5.69-5.68,5.68,5.68,0,0,1-5.69,5.68" transform="translate(-466.75 -354)"/><path class="cls-4" d="M491.53,368.31a2.62,2.62,0,0,1-5.24,0v-3.86a10.46,10.46,0,0,1,20.91,0V384a2.62,2.62,0,0,1-5.23,0V364.45a5.22,5.22,0,0,0-10.44,0Zm-19.68-3.06a5.69,5.69,0,1,1,5.69,5.68,5.69,5.69,0,0,1-5.69-5.68" transform="translate(-466.75 -354)"/><path class="cls-5" d="M512.43,378.78a2.62,2.62,0,0,1,0-5.23h3.86a10.45,10.45,0,1,1,0,20.9H496.76a2.62,2.62,0,1,1,0-5.23h19.53a5.22,5.22,0,0,0,0-10.44Zm3.07-19.67a5.69,5.69,0,1,1-5.68,5.68,5.68,5.68,0,0,1,5.68-5.68" transform="translate(-466.75 -354)"/></svg>